<?xml version="1.0" standalone="no"?>
<!DOCTYPE svg PUBLIC "-//W3C//DTD SVG 20010904//EN"
 "http://www.w3.org/TR/2001/REC-SVG-20010904/DTD/svg10.dtd">
<svg version="1.0" xmlns="http://www.w3.org/2000/svg"
 width="360.000000pt" height="360.000000pt" viewBox="0 0 360.000000 360.000000"
 preserveAspectRatio="xMidYMid meet">
<metadata>
Created by potrace 1.14, written by Peter Selinger 2001-2017
</metadata>
<g transform="translate(0.000000,360.000000) scale(0.100000,-0.100000)"
fill="#000000" stroke="none">
<path d="M651 2413 c-26 -26 -30 -39 -37 -119 -14 -137 -11 -468 4 -564 28
-173 80 -299 170 -407 38 -45 167 -153 183 -153 21 0 49 42 49 73 0 56 39 188
80 270 82 163 190 271 369 369 42 23 40 54 -8 115 -113 143 -338 290 -601 393
-148 57 -172 60 -209 23z"/>
<path d="M2755 2381 c-223 -85 -430 -209 -554 -331 -73 -73 -105 -119 -96
-142 3 -7 39 -33 80 -57 140 -83 242 -193 315 -338 42 -84 80 -215 80 -273 0
-40 23 -80 47 -80 25 0 108 66 173 138 112 124 168 274 191 510 13 125 6 413
-11 517 -17 107 -63 118 -225 56z"/>
</g>
</svg>
